<?xml version="1.0" encoding="UTF-8"?>
<svg id="Lag_2" data-name="Lag 2" xmlns="http://www.w3.org/2000/svg" viewBox="0 0 1920.03 1081.03">
  <defs>
    <style>
      .cls-1 {
        fill: #ebe1cf;
      }

      .cls-2 {
        fill: #6a2b44;
      }

      .cls-3 {
        fill: #c4b59b;
      }
    </style>
  </defs>
  <g id="Lag_1-2" data-name="Lag 1">
    <g>
      <rect class="cls-1" x=".03" y="1.03" width="1920" height="1080"/>
      <path class="cls-3" d="M1016.21,642.54c-92.84,2.26-106.33-28.98-176.39-23.47-89.34,7.03-90.48,59.63-213.32,98.84-20.91,6.67-167.16,51.77-248.63.33-7.36-4.64-38.62-24.38-32.95-43.43,9.84-33,115.68-13.73,204.17-53.61,144.93-65.31,128.36-237.46,204.97-241.62,37.38-2.03,39,39.09,123.14,75.77,68.2,29.73,93.34,14.14,175.06,44.22,15.82,5.82,139.57,51.37,130.45,90.98-7.43,32.26-100.68,50.39-166.49,51.99Z"/>
      <path class="cls-3" d="M1004.1,161.75c64.14,15.95,67.74,68.44,141.25,93.55,56.42,19.28,71.71-5.71,117.4,11.01,98.66,36.09,151.03,197.8,117.4,227.46-20.85,18.39-85.22-4.75-113.73-45.86-21.48-30.97-8.41-51.66-27.52-75.21-29.96-36.94-86.42-16.04-155.92-25.68-114.82-15.93-217.96-108.64-207.29-150.42,7.52-29.43,75.21-48.08,128.41-34.85Z"/>
      <path class="cls-3" d="M1041.31,1081.03c8.49-34.05,11.71-67.47,41.07-80.65,30.88-13.86,49.62,13.09,93.9-.19,38.47-11.53,71.75-46.09,81.32-78.79,13.03-44.53-13.64-100.16-58.17-138.82-37.25-32.34-86.99-52.82-136.46-45.01-54.81,8.65-108.75,51.94-129,102.63-29.25,73.26,23.58,132.69-10.02,163.71-32.02,29.57-94.37-11.15-119.58,16.45-11.41,12.5-12.07,35.52-3.85,59.64.11.34.23.69.35,1.03h240.44Z"/>
      <path class="cls-3" d="M1035.45,21.03c-6.28,17.89-15.83,34.86-33.4,47.94-39.76,29.58-104.56,27.27-147,.72-19.53-12.23-34.9-29.94-45.2-48.66h225.6Z"/>
      <path class="cls-3" d="M222.26,879.14c-42.68,4.93-100.68-78.95-95.39-157.76,2.98-44.4,27.1-103.02,60.54-106.39,43.33-4.37,101.93,84.1,93.55,165.1-4.09,39.51-25.98,95.28-58.7,99.06Z"/>
      <path class="cls-3" d="M1599.14,862.89c-37.33-13.03-8.07-88.77-68.79-151.34-56.54-58.27-132.64-44.85-141.25-83.47-6.61-29.67,39.18-46.41,67.88-91.72,73.55-116.11,52.08-303.71-38.53-412.74-50.41-60.66-111.14-83.65-143.12-102.59h244.18c63.94,89.48,82.68,240.18,95.23,341.07,10.95,88.07-2.8,164.8,53.19,223.79,38.73,40.81,74.66,37.65,88.05,73.38,29.92,79.79-101.47,222.93-156.84,203.62Z"/>
      <path class="cls-3" d="M1503.5,1081.03c-5.63-6.25-11.56-12.06-17.82-17.37-9.95-8.48-20.72-15.71-32.37-21.46-81.14-40.1-194.01-3.56-199.95,31.18-.37,2.15-.31,4.19.15,6.15.11.51.25,1.01.43,1.5h249.56Z"/>
      <path class="cls-3" d="M303.64,250.83c-33.59,7.44-20.69,75.37-87.74,121.43-67.48,46.36-137.6,16.76-162.81,50.58-32.73,43.9,46.2,146.39,100.81,135.48,34.69-6.93,31.18-53.95,86.01-84.86,67.95-38.31,130.66,1.56,161.67-26.2,49.78-44.58-43.69-208.45-97.94-196.43Z"/>
      <path class="cls-3" d="M646,1081.03c-7.83-133.31,30.08-181.52-6.82-210.16-2.64-2.04-5.49-3.86-8.55-5.47-72.82-38.34-259.01,43.85-255.06,98.74.14,1.97.53,3.86,1.14,5.67,10.65,31.7,89.96,39.24,135,71.46,13.62,9.73,24.11,21.73,28.62,37.33.14.47.26.93.38,1.4.1.34.18.69.26,1.03h105.03Z"/>
      <path class="cls-3" d="M672.13,240.25c-50.33,51.19-216.16,21.67-237.72-38.15-20.55-57.03,99.84-114.26,107.74-181.07h105.33c12.12,135.4,59.78,183.49,24.65,219.22Z"/>
      <path class="cls-3" d="M200.28,1081.03c-11.77-59.86-47.5-113.86-65.9-141.66-6.08-9.19-35.52-52.79-75.2-89.77-12.21-11.38-25.39-22.13-39.15-31.05v262.48h180.25Z"/>
      <path class="cls-3" d="M1867.28,316.14c.91,40.03,45.15,68.76,29.35,99.05-10.12,19.41-37.94,26.12-56.87,25.68-30.65-.7-63.09-20.69-87.5-49.63-21.4-25.37-36.62-57.62-39.07-89.78-7.57-99.5,112.8-123.38,115.57-231.13.49-19.05-2.84-35.01-8.31-49.3h99.58v226.79c-31.39,19.12-53.4,39.57-52.75,68.32Z"/>
      <path class="cls-3" d="M1920.03,807.18c-.35-.17-.69-.34-1.03-.5-23.47-11.19-48-15.82-71.9-8.56-53.65,16.32-86.44,87.24-89.88,144.92-3.9,65.29,30.8,96.63,53.27,136.96.2.34.39.68.57,1.03l108.97-273.85Z"/>
      <path class="cls-3" d="M.03,23.03h21v215.34c-7.3,3.53-14.34,7.06-21,10.64V23.03Z"/>
      <path class="cls-3" d="M196.03,94.05c-27.9,75.62-112.33,109.94-174.89,144.03V21.03h.01v1.71h183.21c2.32,23.63.35,47.79-8.33,71.31Z"/>
      <g>
        <path class="cls-3" d="M803.24,1.03c1.88,6.75,4.06,13.51,6.55,20.18h225.6c1.59-6.66,2.96-13.41,4.21-20.18h-236.36Z"/>
        <path class="cls-3" d="M1519.87,21.52h-243.61c-11.25-6.83-18.94-13.17-21.34-20.49h248.98c5.62,6.4,10.93,13.25,15.97,20.49Z"/>
        <path class="cls-3" d="M647.45,1.03c.33,7.45.72,14.73,1.15,21.87h-105.33c.58-7.22.56-14.5-.17-21.87h104.35Z"/>
        <path class="cls-3" d="M204.36,22.9H21.15V1.03h181.21c.83,7.18,1.5,14.43,1.99,21.71,0,.05.01.11.01.16Z"/>
      </g>
      <g>
        <path class="cls-2" d="M995.17,621.5c-92.84,2.26-106.33-28.98-176.39-23.47-89.34,7.03-90.48,59.63-213.32,98.84-20.91,6.67-167.16,51.77-248.63.33-7.36-4.64-38.62-24.38-32.95-43.43,9.84-33,115.68-13.73,204.17-53.61,144.93-65.31,128.36-237.46,204.97-241.62,37.38-2.03,39,39.09,123.14,75.77,68.2,29.73,93.34,14.14,175.06,44.22,15.82,5.82,139.57,51.37,130.45,90.98-7.43,32.26-100.68,50.39-166.49,51.99Z"/>
        <path class="cls-2" d="M983.07,140.72c64.14,15.95,67.74,68.44,141.25,93.55,56.42,19.28,71.71-5.71,117.4,11.01,98.66,36.09,151.03,197.8,117.4,227.46-20.85,18.39-85.22-4.75-113.73-45.86-21.48-30.97-8.41-51.66-27.52-75.21-29.96-36.94-86.42-16.04-155.92-25.68-114.82-15.93-217.96-108.64-207.29-150.42,7.52-29.43,75.21-48.08,128.41-34.85Z"/>
        <path class="cls-2" d="M1236.57,900.37c-9.57,32.7-42.85,67.26-81.32,78.79-44.28,13.28-63.02-13.67-93.9.19-35.13,15.77-32.83,60.52-46.93,100.65h-225.6c-17.02-30.91-20.2-64.55-5.48-80.67,25.21-27.6,87.56,13.12,119.58-16.45,33.6-31.02-19.23-90.45,10.02-163.71,20.25-50.69,74.19-93.98,129-102.63,108.62-17.14,218.56,102.06,194.63,183.83Z"/>
        <path class="cls-2" d="M1014.42,0c-6.28,17.89-15.83,34.86-33.4,47.94-39.76,29.58-104.56,27.27-147,.72-19.53-12.23-34.9-29.94-45.2-48.66h225.6Z"/>
        <path class="cls-2" d="M201.22,858.11c-42.68,4.93-100.68-78.95-95.39-157.76,2.98-44.4,27.1-103.02,60.54-106.39,43.33-4.37,101.93,84.1,93.55,165.1-4.09,39.51-25.98,95.28-58.7,99.06Z"/>
        <path class="cls-2" d="M1578.11,841.86c-37.33-13.03-8.07-88.77-68.79-151.34-56.54-58.27-132.64-44.85-141.25-83.47-6.61-29.67,39.18-46.41,67.88-91.72,73.55-116.11,52.08-303.71-38.53-412.74-50.41-60.66-111.14-83.65-143.12-102.59h244.18c63.94,89.48,82.68,240.18,95.23,341.07,10.95,88.07-2.8,164.8,53.19,223.79,38.73,40.81,74.66,37.65,88.05,73.38,29.92,79.79-101.47,222.93-156.84,203.62Z"/>
        <path class="cls-2" d="M1498.48,1080h-244.18c-15.1-8.94-23.79-16.98-21.97-27.65,5.94-34.74,118.81-71.28,199.95-31.18,26.3,12.99,48.07,33.45,66.2,58.83Z"/>
        <path class="cls-2" d="M282.6,229.79c-33.59,7.44-20.69,75.37-87.74,121.43-67.48,46.36-137.6,16.76-162.81,50.58-32.73,43.9,46.2,146.39,100.81,135.48,34.69-6.93,31.18-53.95,86.01-84.86,67.95-38.31,130.66,1.56,161.67-26.2,49.78-44.58-43.69-208.45-97.94-196.43Z"/>
        <path class="cls-2" d="M625.21,1063.93c.36,5.49.77,10.84,1.24,16.07h-105.33c.87-7.36.38-14.83-1.82-22.43-20.29-70.15-161.37-67.4-164.76-114.46-4.12-57.19,198.2-144.03,263.61-93.27,37.26,28.92-1.76,77.79,7.06,214.09Z"/>
        <path class="cls-2" d="M651.1,219.22c-50.33,51.19-216.16,21.67-237.72-38.15-20.55-57.03,99.84-114.26,107.74-181.07h105.33c12.12,135.4,59.78,183.49,24.65,219.22Z"/>
        <path class="cls-2" d="M183.21,1081H0v-282.48c58.49,37.93,106.4,108.8,114.35,120.82,20.43,30.87,62.23,94.04,68.86,161.66Z"/>
        <path class="cls-2" d="M1846.25,295.11c.91,40.03,45.15,68.76,29.35,99.05-10.12,19.41-37.94,26.12-56.87,25.68-57.52-1.31-121.33-70.54-126.57-139.41-7.57-99.5,112.8-123.38,115.57-231.13.49-19.05-2.84-35.01-8.31-49.3h119.58v215.34c-41.6,22.66-73.53,45.23-72.75,79.77Z"/>
        <path class="cls-2" d="M1919,797.51v282.49h-119.58c-19.83-51.88-67.78-81.85-63.23-157.99,3.44-57.68,36.23-128.6,89.88-144.92,31.16-9.47,63.39,1.28,92.93,20.42Z"/>
        <path class="cls-2" d="M175,73.02C147.1,148.64,62.67,182.96.11,217.05V0h.01v1.71h183.21c2.32,23.63.35,47.79-8.33,71.31Z"/>
      </g>
    </g>
  </g>
</svg>