<?xml version="1.0" encoding="UTF-8"?>
<svg id="Lag_1" xmlns="http://www.w3.org/2000/svg" viewBox="0 0 89.4 89.41">
  <defs>
    <style>
      .cls-1 {
        fill: #dedeed;
      }

      .cls-2 {
        fill: #b2b1cd;
      }

      .cls-3 {
        fill: #9293ba;
      }

      .cls-4 {
        fill: #9e9eb8;
      }
    </style>
  </defs>
  <g>
    <path class="cls-2" d="M49.46,54.87v1.49c-.04-.51-.04-1.01,0-1.49Z"/>
    <path class="cls-2" d="M79.42,49.01c-.04-.43-.12-.96-.27-1.55.15.49.25,1.01.27,1.55Z"/>
    <path class="cls-2" d="M79.45,49.12v.03h-.01s.01-.02.01-.03Z"/>
  </g>
  <g>
    <circle class="cls-3" cx="22.9" cy="30.43" r="9.19"/>
    <path class="cls-3" d="M82.86,51.05v30.57c-24.36.21-48.71.41-73.07.62.52-1.57,1.12-3.22,1.84-4.9,2.84-6.72,7.37-13.7,14.67-16.2,7.5-2.57,12.91,1.32,22.63,1.83,7.01.38,16.96-.96,29.46-8.88,1.45-.92,2.94-1.93,4.47-3.04Z"/>
    <path class="cls-3" d="M81.94,47.99c-1.03.51-2.31.33-3.55-.14-2.05-.78-4.02-2.35-4.7-2.91-.28.41-3.74,5.27-9.78,5.19-4.71-.06-7.69-3.07-8.26-3.67-3.49,2.99-8.41,3.31-11.92.92-2.89-1.96-4.52-5.55-3.98-8.86.87-5.28,6.92-7.86,11.32-7.95,5.12-.11,8.64,3.15,9.47,3.97,1.03-4.69,4.78-8.32,9.48-9.17,2.95-.53,5.92.09,8.37,1.62,1.54.95,2.87,2.27,3.86,3.88,3.35,8.74,2.65,15.67-.31,17.12Z"/>
    <path class="cls-3" d="M75.23,2H12.17C5.47,2,0,7.48,0,14.18v63.06c0,6.69,5.47,12.17,12.17,12.17h63.06c6.7,0,12.17-5.48,12.17-12.17V14.18c0-6.7-5.47-12.18-12.17-12.18ZM9.01,20.68c0-5.32,4.34-9.67,9.66-9.67h50.06c5.32,0,9.66,4.35,9.66,9.67v6.31c-2.45-1.53-5.42-2.15-8.37-1.62-4.7.85-8.45,4.48-9.48,9.17-.83-.82-4.35-4.08-9.47-3.97-4.4.09-10.45,2.67-11.32,7.95-.54,3.31,1.09,6.9,3.98,8.86,3.51,2.39,8.43,2.07,11.92-.92.57.6,3.55,3.61,8.26,3.67,6.04.08,9.5-4.78,9.78-5.19.68.56,2.65,2.13,4.7,2.91v6.24c-12.5,7.92-22.45,9.26-29.46,8.88-9.72-.51-15.13-4.4-22.63-1.83-7.3,2.5-11.83,9.48-14.67,16.2-1.63-1.73-2.62-4.06-2.62-6.6V20.68Z"/>
    <circle class="cls-3" cx="22.9" cy="30.43" r="9.19"/>
    <path class="cls-3" d="M78.39,26.99v20.86c-2.05-.78-4.02-2.35-4.7-2.91-.28.41-3.74,5.27-9.78,5.19-4.71-.06-7.69-3.07-8.26-3.67-3.49,2.99-8.41,3.31-11.92.92-2.89-1.96-4.52-5.55-3.98-8.86.87-5.28,6.92-7.86,11.32-7.95,5.12-.11,8.64,3.15,9.47,3.97,1.03-4.69,4.78-8.32,9.48-9.17,2.95-.53,5.92.09,8.37,1.62Z"/>
    <path class="cls-3" d="M78.39,54.09v16.65c0,5.31-4.34,9.66-9.66,9.66H18.67c-.65,0-4.06-.08-6.83-2.84-.07-.07-.14-.14-.21-.22,2.84-6.72,7.37-13.7,14.67-16.2,7.5-2.57,12.91,1.32,22.63,1.83,7.01.38,16.96-.96,29.46-8.88Z"/>
    <circle class="cls-3" cx="22.9" cy="30.43" r="9.19"/>
  </g>
  <g>
    <circle class="cls-1" cx="24.9" cy="28.43" r="9.19"/>
    <path class="cls-1" d="M84.86,49.05v30.57c-24.36.21-48.71.41-73.07.62.52-1.57,1.12-3.22,1.84-4.9,2.84-6.72,7.37-13.7,14.67-16.2,7.5-2.57,12.91,1.32,22.63,1.83,7.01.38,16.96-.96,29.46-8.88,1.45-.92,2.94-1.93,4.47-3.04Z"/>
    <path class="cls-1" d="M83.94,45.99c-1.03.51-2.31.33-3.55-.14-2.05-.78-4.02-2.35-4.7-2.91-.28.41-3.74,5.27-9.78,5.19-4.71-.06-7.69-3.07-8.26-3.67-3.49,2.99-8.41,3.31-11.92.92-2.89-1.96-4.52-5.55-3.98-8.86.87-5.28,6.92-7.86,11.32-7.95,5.12-.11,8.64,3.15,9.47,3.97,1.03-4.69,4.78-8.32,9.48-9.17,2.95-.53,5.92.09,8.37,1.62,1.54.95,2.87,2.27,3.86,3.88,3.35,8.74,2.65,15.67-.31,17.12Z"/>
    <path class="cls-1" d="M77.23,0H14.17C7.47,0,2,5.48,2,12.18v63.06c0,6.69,5.47,12.17,12.17,12.17h63.06c6.7,0,12.17-5.48,12.17-12.17V12.18c0-6.7-5.47-12.18-12.17-12.18ZM11.01,18.68c0-5.32,4.34-9.67,9.66-9.67h50.06c5.32,0,9.66,4.35,9.66,9.67v6.31c-2.45-1.53-5.42-2.15-8.37-1.62-4.7.85-8.45,4.48-9.48,9.17-.83-.82-4.35-4.08-9.47-3.97-4.4.09-10.45,2.67-11.32,7.95-.54,3.31,1.09,6.9,3.98,8.86,3.51,2.39,8.43,2.07,11.92-.92.57.6,3.55,3.61,8.26,3.67,6.04.08,9.5-4.78,9.78-5.19.68.56,2.65,2.13,4.7,2.91v6.24c-12.5,7.92-22.45,9.26-29.46,8.88-9.72-.51-15.13-4.4-22.63-1.83-7.3,2.5-11.83,9.48-14.67,16.2-1.63-1.73-2.62-4.06-2.62-6.6V18.68Z"/>
    <circle class="cls-1" cx="24.9" cy="28.43" r="9.19"/>
    <path class="cls-1" d="M80.39,24.99v20.86c-2.05-.78-4.02-2.35-4.7-2.91-.28.41-3.74,5.27-9.78,5.19-4.71-.06-7.69-3.07-8.26-3.67-3.49,2.99-8.41,3.31-11.92.92-2.89-1.96-4.52-5.55-3.98-8.86.87-5.28,6.92-7.86,11.32-7.95,5.12-.11,8.64,3.15,9.47,3.97,1.03-4.69,4.78-8.32,9.48-9.17,2.95-.53,5.92.09,8.37,1.62Z"/>
    <path class="cls-1" d="M80.39,52.09v16.65c0,5.31-4.34,9.66-9.66,9.66H20.67c-.65,0-4.06-.08-6.83-2.84-.07-.07-.14-.14-.21-.22,2.84-6.72,7.37-13.7,14.67-16.2,7.5-2.57,12.91,1.32,22.63,1.83,7.01.38,16.96-.96,29.46-8.88Z"/>
    <circle class="cls-1" cx="24.9" cy="28.43" r="9.19"/>
  </g>
  <g>
    <circle class="cls-2" cx="23.9" cy="29.43" r="9.19"/>
    <path class="cls-4" d="M83.86,50.05v30.57c-24.36.21-48.71.41-73.07.62.52-1.57,1.12-3.22,1.84-4.9,2.84-6.72,7.37-13.7,14.67-16.2,7.5-2.57,12.91,1.32,22.63,1.83,7.01.38,16.96-.96,29.46-8.88,1.45-.92,2.94-1.93,4.47-3.04Z"/>
    <path class="cls-4" d="M82.94,46.99c-1.03.51-2.31.33-3.55-.14-2.05-.78-4.02-2.35-4.7-2.91-.28.41-3.74,5.27-9.78,5.19-4.71-.06-7.69-3.07-8.26-3.67-3.49,2.99-8.41,3.31-11.92.92-2.89-1.96-4.52-5.55-3.98-8.86.87-5.28,6.92-7.86,11.32-7.95,5.12-.11,8.64,3.15,9.47,3.97,1.03-4.69,4.78-8.32,9.48-9.17,2.95-.53,5.92.09,8.37,1.62,1.54.95,2.87,2.27,3.86,3.88,3.35,8.74,2.65,15.67-.31,17.12Z"/>
    <path class="cls-2" d="M76.23,1H13.17C6.47,1,1,6.48,1,13.18v63.06c0,6.69,5.47,12.17,12.17,12.17h63.06c6.7,0,12.17-5.48,12.17-12.17V13.18c0-6.7-5.47-12.18-12.17-12.18ZM10.01,19.68c0-5.32,4.34-9.67,9.66-9.67h50.06c5.32,0,9.66,4.35,9.66,9.67v6.31c-2.45-1.53-5.42-2.15-8.37-1.62-4.7.85-8.45,4.48-9.48,9.17-.83-.82-4.35-4.08-9.47-3.97-4.4.09-10.45,2.67-11.32,7.95-.54,3.31,1.09,6.9,3.98,8.86,3.51,2.39,8.43,2.07,11.92-.92.57.6,3.55,3.61,8.26,3.67,6.04.08,9.5-4.78,9.78-5.19.68.56,2.65,2.13,4.7,2.91v6.24c-12.5,7.92-22.45,9.26-29.46,8.88-9.72-.51-15.13-4.4-22.63-1.83-7.3,2.5-11.83,9.48-14.67,16.2-1.63-1.73-2.62-4.06-2.62-6.6V19.68Z"/>
    <circle class="cls-4" cx="23.9" cy="29.43" r="9.19"/>
    <path class="cls-2" d="M79.39,25.99v20.86c-2.05-.78-4.02-2.35-4.7-2.91-.28.41-3.74,5.27-9.78,5.19-4.71-.06-7.69-3.07-8.26-3.67-3.49,2.99-8.41,3.31-11.92.92-2.89-1.96-4.52-5.55-3.98-8.86.87-5.28,6.92-7.86,11.32-7.95,5.12-.11,8.64,3.15,9.47,3.97,1.03-4.69,4.78-8.32,9.48-9.17,2.95-.53,5.92.09,8.37,1.62Z"/>
    <path class="cls-2" d="M79.39,53.09v16.65c0,5.31-4.34,9.66-9.66,9.66H19.67c-.65,0-4.06-.08-6.83-2.84-.07-.07-.14-.14-.21-.22,2.84-6.72,7.37-13.7,14.67-16.2,7.5-2.57,12.91,1.32,22.63,1.83,7.01.38,16.96-.96,29.46-8.88Z"/>
    <circle class="cls-2" cx="23.9" cy="29.43" r="9.19"/>
  </g>
</svg>