<?xml version="1.0" encoding="UTF-8"?>
<svg id="Lag_2" data-name="Lag 2" xmlns="http://www.w3.org/2000/svg" viewBox="0 0 89.89 89.87">
  <defs>
    <style>
      .cls-1 {
        fill: #dedeed;
      }

      .cls-2 {
        fill: #b2b1cd;
      }

      .cls-3 {
        fill: #9293ba;
      }
    </style>
  </defs>
  <g id="Lag_1-2" data-name="Lag 1">
    <g>
      <g>
        <path class="cls-3" d="M78.74,2H9.15C4.1,2,0,6.08,0,11.13v69.61c0,5.05,4.1,9.13,9.15,9.13h69.59c5.05,0,9.15-4.08,9.15-9.13V11.13c0-5.05-4.1-9.13-9.15-9.13ZM77.94,72.86c0,3.91-3.17,7.07-7.08,7.07H17.03c-3.91,0-7.08-3.16-7.08-7.07V19.01c0-3.91,3.17-7.07,7.08-7.07h53.83c3.91,0,7.08,3.16,7.08,7.07v53.85Z"/>
        <g>
          <path class="cls-3" d="M48.42,55.83c-1.23,1.08-2.85,1.62-4.48,1.62-2.56,0-4.18-1.35-4.48-1.61-7-5.42-14.01-10.85-21.01-16.28-.8-.62-1.97-.05-1.97.96v24.25c0,2.74,2.56,4.96,5.72,4.96h43.49c3.15,0,5.72-2.21,5.72-4.96v-24.47c0-1.02-1.17-1.59-1.97-.96-7,5.49-14.01,10.99-21.02,16.48Z"/>
          <path class="cls-3" d="M65.6,22.14H22.29c-.58.02-2.54.13-4.02,1.44-1.28,1.13-1.51,2.55-1.67,3.5-.18,1.11-.04,1.97,0,2.21.41,2.3,2.04,3.82,2.78,4.43,7.13,5.52,14.26,11.04,21.39,16.57.21.18,1.36,1.14,3.18,1.14,1.15,0,2.3-.38,3.17-1.15,7.09-5.56,14.18-11.13,21.28-16.69.74-.56,2.46-2.02,2.89-4.29.19-1.01.06-1.83,0-2.21-.16-.95-.39-2.36-1.67-3.5-1.48-1.31-3.44-1.43-4.02-1.45Z"/>
        </g>
      </g>
      <g>
        <path class="cls-1" d="M80.74,0H11.15C6.1,0,2,4.08,2,9.13v69.61c0,5.05,4.1,9.13,9.15,9.13h69.59c5.05,0,9.15-4.08,9.15-9.13V9.13c0-5.05-4.1-9.13-9.15-9.13ZM79.94,70.86c0,3.91-3.17,7.07-7.08,7.07H19.03c-3.91,0-7.08-3.16-7.08-7.07V17.01c0-3.91,3.17-7.07,7.08-7.07h53.83c3.91,0,7.08,3.16,7.08,7.07v53.85Z"/>
        <g>
          <path class="cls-1" d="M50.42,53.83c-1.23,1.08-2.85,1.62-4.48,1.62-2.56,0-4.18-1.35-4.48-1.61-7-5.42-14.01-10.85-21.01-16.28-.8-.62-1.97-.05-1.97.96v24.25c0,2.74,2.56,4.96,5.72,4.96h43.49c3.15,0,5.72-2.21,5.72-4.96v-24.47c0-1.02-1.17-1.59-1.97-.96-7,5.49-14.01,10.99-21.02,16.48Z"/>
          <path class="cls-1" d="M67.6,20.14H24.29c-.58.02-2.54.13-4.02,1.44-1.28,1.13-1.51,2.55-1.67,3.5-.18,1.11-.04,1.97,0,2.21.41,2.3,2.04,3.82,2.78,4.43,7.13,5.52,14.26,11.04,21.39,16.57.21.18,1.36,1.14,3.18,1.14,1.15,0,2.3-.38,3.17-1.15,7.09-5.56,14.18-11.13,21.28-16.69.74-.56,2.46-2.02,2.89-4.29.19-1.01.06-1.83,0-2.21-.16-.95-.39-2.36-1.67-3.5-1.48-1.31-3.44-1.43-4.02-1.45Z"/>
        </g>
      </g>
      <g>
        <path class="cls-2" d="M79.74,1H10.15C5.1,1,1,5.08,1,10.13v69.61c0,5.05,4.1,9.13,9.15,9.13h69.59c5.05,0,9.15-4.08,9.15-9.13V10.13c0-5.05-4.1-9.13-9.15-9.13ZM78.94,71.86c0,3.91-3.17,7.07-7.08,7.07H18.03c-3.91,0-7.08-3.16-7.08-7.07V18.01c0-3.91,3.17-7.07,7.08-7.07h53.83c3.91,0,7.08,3.16,7.08,7.07v53.85Z"/>
        <g>
          <path class="cls-2" d="M49.42,54.83c-1.23,1.08-2.85,1.62-4.48,1.62-2.56,0-4.18-1.35-4.48-1.61-7-5.42-14.01-10.85-21.01-16.28-.8-.62-1.97-.05-1.97.96v24.25c0,2.74,2.56,4.96,5.72,4.96h43.49c3.15,0,5.72-2.21,5.72-4.96v-24.47c0-1.02-1.17-1.59-1.97-.96-7,5.49-14.01,10.99-21.02,16.48Z"/>
          <path class="cls-2" d="M66.6,21.14H23.29c-.58.02-2.54.13-4.02,1.44-1.28,1.13-1.51,2.55-1.67,3.5-.18,1.11-.04,1.97,0,2.21.41,2.3,2.04,3.82,2.78,4.43,7.13,5.52,14.26,11.04,21.39,16.57.21.18,1.36,1.14,3.18,1.14,1.15,0,2.3-.38,3.17-1.15,7.09-5.56,14.18-11.13,21.28-16.69.74-.56,2.46-2.02,2.89-4.29.19-1.01.06-1.83,0-2.21-.16-.95-.39-2.36-1.67-3.5-1.48-1.31-3.44-1.43-4.02-1.45Z"/>
        </g>
      </g>
    </g>
  </g>
</svg>