<?xml version="1.0" encoding="UTF-8"?>
<svg id="Lag_1" xmlns="http://www.w3.org/2000/svg" viewBox="0 0 89 90.09">
  <defs>
    <style>
      .cls-1 {
        fill: #dedeed;
      }

      .cls-2 {
        fill: #b2b1cd;
      }

      .cls-3 {
        fill: #9293ba;
      }
    </style>
  </defs>
  <path class="cls-1" d="M79.85,0H10.26C5.21,0,1.11,4.09,1.11,9.14v69.6c0,5.05,4.1,9.14,9.15,9.14h69.59c5.05,0,9.15-4.09,9.15-9.14V9.14c0-5.05-4.1-9.14-9.15-9.14ZM66.1,21.82c5.26,0,9.53,4.26,9.53,9.53s-4.26,9.52-9.53,9.52-9.53-4.26-9.53-9.52,4.26-9.53,9.53-9.53ZM24.01,21.82c5.26,0,9.53,4.26,9.53,9.53s-4.26,9.52-9.53,9.52-9.53-4.26-9.53-9.52,4.26-9.53,9.53-9.53ZM72.86,67c-3.19,2.34-13.12,9.03-27.46,9.13h-.66c-14.38-.1-24.32-6.78-27.57-9.18-.02-.01-.04-.03-.07-.04-1.79-1.25-2.97-3.32-2.97-5.67,0-3.8,3.08-6.89,6.89-6.89,1.75,0,3.36.66,4.58,1.74,2.34,1.68,9.42,6.31,19.56,6.27,9.88-.03,16.85-4.46,19.54-6.43.18-.13.33-.25.48-.37,1.12-.76,2.47-1.22,3.92-1.22,3.81,0,6.89,3.09,6.89,6.89,0,2.41-1.24,4.54-3.12,5.77Z"/>
  <path class="cls-3" d="M78.74,2.22H9.15C4.1,2.22,0,6.3,0,11.35v69.6c0,5.05,4.1,9.14,9.15,9.14h69.59c5.05,0,9.15-4.09,9.15-9.14V11.35c0-5.05-4.1-9.14-9.15-9.14ZM64.99,24.04c5.26,0,9.53,4.26,9.53,9.53s-4.26,9.52-9.53,9.52-9.53-4.26-9.53-9.52,4.26-9.53,9.53-9.53ZM22.9,24.04c5.26,0,9.53,4.26,9.53,9.53s-4.26,9.52-9.53,9.52-9.53-4.26-9.53-9.52,4.26-9.53,9.53-9.53ZM71.75,69.21c-3.19,2.34-13.12,9.03-27.46,9.13h-.66c-14.38-.1-24.32-6.78-27.57-9.18-.02-.01-.04-.03-.07-.04-1.79-1.25-2.97-3.32-2.97-5.67,0-3.8,3.08-6.89,6.89-6.89,1.75,0,3.36.66,4.58,1.74,2.34,1.68,9.42,6.31,19.56,6.27,9.88-.03,16.85-4.46,19.54-6.43.18-.13.33-.25.48-.37,1.12-.76,2.47-1.22,3.92-1.22,3.81,0,6.89,3.09,6.89,6.89,0,2.41-1.24,4.54-3.12,5.77Z"/>
  <path class="cls-2" d="M78.74,1.11H9.15C4.1,1.11,0,5.2,0,10.25v69.6c0,5.05,4.1,9.14,9.15,9.14h69.59c5.05,0,9.15-4.09,9.15-9.14V10.25c0-5.05-4.1-9.14-9.15-9.14ZM64.99,22.93c5.26,0,9.53,4.26,9.53,9.53s-4.26,9.52-9.53,9.52-9.53-4.26-9.53-9.52,4.26-9.53,9.53-9.53ZM22.9,22.93c5.26,0,9.53,4.26,9.53,9.53s-4.26,9.52-9.53,9.52-9.53-4.26-9.53-9.52,4.26-9.53,9.53-9.53ZM71.75,68.11c-3.19,2.34-13.12,9.03-27.46,9.13h-.66c-14.38-.1-24.32-6.78-27.57-9.18-.02-.01-.04-.03-.07-.04-1.79-1.25-2.97-3.32-2.97-5.67,0-3.8,3.08-6.89,6.89-6.89,1.75,0,3.36.66,4.58,1.74,2.34,1.68,9.42,6.31,19.56,6.27,9.88-.03,16.85-4.46,19.54-6.43.18-.13.33-.25.48-.37,1.12-.76,2.47-1.22,3.92-1.22,3.81,0,6.89,3.09,6.89,6.89,0,2.41-1.24,4.54-3.12,5.77Z"/>
</svg>