<?xml version="1.0" encoding="UTF-8"?>
<svg id="Lag_1" xmlns="http://www.w3.org/2000/svg" viewBox="0 0 89.4 89.41">
  <defs>
    <style>
      .cls-1 {
        fill: #dedeed;
      }

      .cls-2 {
        fill: none;
      }

      .cls-3 {
        fill: #b2b1cd;
      }

      .cls-4 {
        fill: #9293ba;
      }
    </style>
  </defs>
  <g>
    <path class="cls-3" d="M49.46,54.87v1.49c-.04-.51-.04-1.01,0-1.49Z"/>
    <path class="cls-3" d="M79.43,49.01c-.04-.43-.12-.96-.27-1.55.15.49.25,1.01.27,1.55Z"/>
    <path class="cls-3" d="M79.45,49.12v.03h-.01s.01-.02.01-.03Z"/>
  </g>
  <g>
    <path class="cls-4" d="M70.36,47.91l-.58.61c.26-.15.5-.31.73-.47l-.15-.14ZM70.36,47.91l-.58.61c.26-.15.5-.31.73-.47l-.15-.14ZM70.36,47.91l-.58.61c.26-.15.5-.31.73-.47l-.15-.14ZM70.36,47.91l-.58.61c.26-.15.5-.31.73-.47l-.15-.14ZM70.36,47.91l-.58.61c.26-.15.5-.31.73-.47l-.15-.14ZM70.36,47.91l-.58.61c.26-.15.5-.31.73-.47l-.15-.14ZM70.36,47.91l-11.38-10.87c-1.07-1.02-1.61-2.38-1.61-3.75,0-.35.04-.7.11-1.04-1.63-.92-3.81-1.73-6.41-1.67-4.4.08-10.45,2.66-11.32,7.95-.29,1.81.06,3.68.91,5.34l8.17-6.99c2.05-1.76,5.13-1.52,6.88.53l.65.76c1.76,2.05,1.52,5.13-.53,6.88l-4.13,3.54c1.41-.39,2.76-1.1,3.95-2.12.57.59,3.55,3.61,8.26,3.67,2.36.03,4.33-.7,5.87-1.62.26-.15.5-.31.73-.47l-.15-.14ZM70.36,47.91l-11.38-10.87c-1.07-1.02-1.61-2.38-1.61-3.75,0-.35.04-.7.11-1.04-1.63-.92-3.81-1.73-6.41-1.67-4.4.08-10.45,2.66-11.32,7.95-.29,1.81.06,3.68.91,5.34l8.17-6.99c2.05-1.76,5.13-1.52,6.88.53l.65.76c1.76,2.05,1.52,5.13-.53,6.88l-4.13,3.54c1.41-.39,2.76-1.1,3.95-2.12.57.59,3.55,3.61,8.26,3.67,2.36.03,4.33-.7,5.87-1.62.26-.15.5-.31.73-.47l-.15-.14ZM75.23,2H12.17C5.47,2,0,7.48,0,14.18v63.06c0,6.69,5.47,12.17,12.17,12.17h63.06c6.7,0,12.17-5.48,12.17-12.17V14.18c0-6.7-5.47-12.18-12.17-12.18ZM81.44,51.31l-14.39,15.09c-1.02,1.07-2.39,1.61-3.75,1.61-1.29,0-2.58-.48-3.58-1.44-1.17-1.12-1.71-2.66-1.59-4.16-3.47.6-6.55.7-9.2.56-8.34-.43-13.5-3.35-19.54-2.55,1.04,2,.69,4.52-1.02,6.15-1,.96-2.29,1.44-3.57,1.44-1.37,0-2.73-.54-3.75-1.61l-1.28-1.34c-3.66,3.3-6.27,7.85-8.14,12.29-1.63-1.74-2.62-4.07-2.62-6.61v-16.96l-2.36-2.47c-.24-.25-.44-.51-.62-.79v-.13c-1.02-1.66-1.01-3.76,0-5.4.06-.1.13-.21.19-.31.07-.1.14-.2.22-.29.12-.14.25-.27.38-.4.02-.02.03-.03.05-.05l2.14-2.04v-21.22c0-5.32,4.34-9.66,9.66-9.66h50.06c5.32,0,9.66,4.34,9.66,9.66v6.31c-2.45-1.52-5.42-2.14-8.37-1.62-2.27.41-4.31,1.46-5.94,2.97.74.22,1.45.62,2.05,1.2l15.09,14.4s.03.03.05.05c.13.13.26.26.38.4.15.19.3.4.42.61,1,1.64,1,3.72,0,5.37v.14c-.18.28-.39.55-.63.8ZM58.98,37.04c-1.07-1.02-1.61-2.38-1.61-3.75,0-.35.04-.7.11-1.04-1.63-.92-3.81-1.73-6.41-1.67-4.4.08-10.45,2.66-11.32,7.95-.29,1.81.06,3.68.91,5.34l8.17-6.99c2.05-1.76,5.13-1.52,6.88.53l.65.76c1.76,2.05,1.52,5.13-.53,6.88l-4.13,3.54c1.41-.39,2.76-1.1,3.95-2.12.57.59,3.55,3.61,8.26,3.67,2.36.03,4.33-.7,5.87-1.62.26-.15.5-.31.73-.47l-.15-.14-11.38-10.87ZM70.36,47.91l-.58.61c.26-.15.5-.31.73-.47l-.15-.14ZM70.36,47.91l-.58.61c.26-.15.5-.31.73-.47l-.15-.14ZM70.36,47.91l-.58.61c.26-.15.5-.31.73-.47l-.15-.14ZM70.36,47.91l-.58.61c.26-.15.5-.31.73-.47l-.15-.14ZM70.36,47.91l-.58.61c.26-.15.5-.31.73-.47l-.15-.14ZM70.36,47.91l-.58.61c.26-.15.5-.31.73-.47l-.15-.14Z"/>
    <path class="cls-4" d="M6.03,9.13v35.86c.06-.1.13-.21.19-.31.07-.1.14-.2.22-.29.12-.14.25-.27.38-.4.02-.02.03-.03.05-.05l2.14-2.04,12.95-12.36c2.07-1.97,5.35-1.9,7.33.17.95,1.01,1.43,2.29,1.43,3.58,0,1.37-.54,2.73-1.61,3.75l-11.38,10.87,10.81,11.33c.35.36.63.76.85,1.18,1.04,2,.69,4.52-1.02,6.15-1,.96-2.29,1.44-3.57,1.44-1.37,0-2.73-.54-3.75-1.61l-1.28-1.34-10.76-11.28-2.36-2.47c-.24-.25-.44-.51-.62-.79v34.66h76.04v-34.67c-.18.28-.39.55-.63.8l-14.39,15.09c-1.02,1.07-2.39,1.61-3.75,1.61-1.29,0-2.58-.48-3.58-1.44-1.17-1.12-1.71-2.66-1.59-4.16.09-1.15.56-2.28,1.42-3.17l10.23-10.72c.26-.15.5-.31.73-.47l-.15-.14-11.38-10.87c-1.07-1.02-1.61-2.38-1.61-3.75,0-.35.04-.7.11-1.04.19-.92.63-1.8,1.33-2.54,1.4-1.47,3.45-1.93,5.27-1.37.74.22,1.45.62,2.05,1.2l15.09,14.4s.03.03.05.05c.13.13.26.26.38.4.15.19.3.4.42.61V9.13H6.03ZM55.83,45.05l-4.13,3.54h-.01l-12.43,10.65c-2.05,1.75-5.13,1.51-6.88-.54l-.65-.76c-1.76-2.05-1.52-5.13.53-6.88l8.4-7.18h0s8.17-7,8.17-7c2.05-1.76,5.13-1.52,6.88.53l.65.76c1.76,2.05,1.52,5.13-.53,6.88Z"/>
    <g>
      <g>
        <line class="cls-4" x1="9.01" y1="41.9" x2="6.87" y2="43.94"/>
        <path class="cls-4" d="M6.03,44.99c-1.01,1.64-1.02,3.74,0,5.4v.13c-1.09-1.7-1.08-3.89,0-5.57.06-.09.12-.18.19-.27-.06.1-.13.21-.19.31Z"/>
      </g>
      <g>
        <path class="cls-4" d="M70.51,48.05c-.23.16-.47.32-.73.47l.58-.61.15.14Z"/>
        <path class="cls-4" d="M82.07,50.37c1-1.65,1-3.73,0-5.37-.12-.21-.27-.42-.42-.61.16.18.3.38.42.58,1.07,1.68,1.08,3.85,0,5.54v-.14Z"/>
      </g>
    </g>
  </g>
  <g>
    <path class="cls-1" d="M72.36,45.91l-.58.61c.26-.15.5-.31.73-.47l-.15-.14ZM72.36,45.91l-.58.61c.26-.15.5-.31.73-.47l-.15-.14ZM72.36,45.91l-.58.61c.26-.15.5-.31.73-.47l-.15-.14ZM72.36,45.91l-.58.61c.26-.15.5-.31.73-.47l-.15-.14ZM72.36,45.91l-.58.61c.26-.15.5-.31.73-.47l-.15-.14ZM72.36,45.91l-.58.61c.26-.15.5-.31.73-.47l-.15-.14ZM72.36,45.91l-11.38-10.87c-1.07-1.02-1.61-2.38-1.61-3.75,0-.35.04-.7.11-1.04-1.63-.92-3.81-1.73-6.41-1.67-4.4.08-10.45,2.66-11.32,7.95-.29,1.81.06,3.68.91,5.34l8.17-6.99c2.05-1.76,5.13-1.52,6.88.53l.65.76c1.76,2.05,1.52,5.13-.53,6.88l-4.13,3.54c1.41-.39,2.76-1.1,3.95-2.12.57.59,3.55,3.61,8.26,3.67,2.36.03,4.33-.7,5.87-1.62.26-.15.5-.31.73-.47l-.15-.14ZM72.36,45.91l-11.38-10.87c-1.07-1.02-1.61-2.38-1.61-3.75,0-.35.04-.7.11-1.04-1.63-.92-3.81-1.73-6.41-1.67-4.4.08-10.45,2.66-11.32,7.95-.29,1.81.06,3.68.91,5.34l8.17-6.99c2.05-1.76,5.13-1.52,6.88.53l.65.76c1.76,2.05,1.52,5.13-.53,6.88l-4.13,3.54c1.41-.39,2.76-1.1,3.95-2.12.57.59,3.55,3.61,8.26,3.67,2.36.03,4.33-.7,5.87-1.62.26-.15.5-.31.73-.47l-.15-.14ZM77.23,0H14.17C7.47,0,2,5.48,2,12.18v63.06c0,6.69,5.47,12.17,12.17,12.17h63.06c6.7,0,12.17-5.48,12.17-12.17V12.18c0-6.7-5.47-12.18-12.17-12.18ZM83.44,49.31l-14.39,15.09c-1.02,1.07-2.39,1.61-3.75,1.61-1.29,0-2.58-.48-3.58-1.44-1.17-1.12-1.71-2.66-1.59-4.16-3.47.6-6.55.7-9.2.56-8.34-.43-13.5-3.35-19.54-2.55,1.04,2,.69,4.52-1.02,6.15-1,.96-2.29,1.44-3.57,1.44-1.37,0-2.73-.54-3.75-1.61l-1.28-1.34c-3.66,3.3-6.27,7.85-8.14,12.29-1.63-1.74-2.62-4.07-2.62-6.61v-16.96l-2.36-2.47c-.24-.25-.44-.51-.62-.79v-.13c-1.02-1.66-1.01-3.76,0-5.4.06-.1.13-.21.19-.31.07-.1.14-.2.22-.29.12-.14.25-.27.38-.4.02-.02.03-.03.05-.05l2.14-2.04v-21.22c0-5.32,4.34-9.66,9.66-9.66h50.06c5.32,0,9.66,4.34,9.66,9.66v6.31c-2.45-1.52-5.42-2.14-8.37-1.62-2.27.41-4.31,1.46-5.94,2.97.74.22,1.45.62,2.05,1.2l15.09,14.4s.03.03.05.05c.13.13.26.26.38.4.15.19.3.4.42.61,1,1.64,1,3.72,0,5.37v.14c-.18.28-.39.55-.63.8ZM60.98,35.04c-1.07-1.02-1.61-2.38-1.61-3.75,0-.35.04-.7.11-1.04-1.63-.92-3.81-1.73-6.41-1.67-4.4.08-10.45,2.66-11.32,7.95-.29,1.81.06,3.68.91,5.34l8.17-6.99c2.05-1.76,5.13-1.52,6.88.53l.65.76c1.76,2.05,1.52,5.13-.53,6.88l-4.13,3.54c1.41-.39,2.76-1.1,3.95-2.12.57.59,3.55,3.61,8.26,3.67,2.36.03,4.33-.7,5.87-1.62.26-.15.5-.31.73-.47l-.15-.14-11.38-10.87ZM72.36,45.91l-.58.61c.26-.15.5-.31.73-.47l-.15-.14ZM72.36,45.91l-.58.61c.26-.15.5-.31.73-.47l-.15-.14ZM72.36,45.91l-.58.61c.26-.15.5-.31.73-.47l-.15-.14ZM72.36,45.91l-.58.61c.26-.15.5-.31.73-.47l-.15-.14ZM72.36,45.91l-.58.61c.26-.15.5-.31.73-.47l-.15-.14ZM72.36,45.91l-.58.61c.26-.15.5-.31.73-.47l-.15-.14Z"/>
    <path class="cls-1" d="M8.03,7.13v35.86c.06-.1.13-.21.19-.31.07-.1.14-.2.22-.29.12-.14.25-.27.38-.4.02-.02.03-.03.05-.05l2.14-2.04,12.95-12.36c2.07-1.97,5.35-1.9,7.33.17.95,1.01,1.43,2.29,1.43,3.58,0,1.37-.54,2.73-1.61,3.75l-11.38,10.87,10.81,11.33c.35.36.63.76.85,1.18,1.04,2,.69,4.52-1.02,6.15-1,.96-2.29,1.44-3.57,1.44-1.37,0-2.73-.54-3.75-1.61l-1.28-1.34-10.76-11.28-2.36-2.47c-.24-.25-.44-.51-.62-.79v34.66h76.04v-34.67c-.18.28-.39.55-.63.8l-14.39,15.09c-1.02,1.07-2.39,1.61-3.75,1.61-1.29,0-2.58-.48-3.58-1.44-1.17-1.12-1.71-2.66-1.59-4.16.09-1.15.56-2.28,1.42-3.17l10.23-10.72c.26-.15.5-.31.73-.47l-.15-.14-11.38-10.87c-1.07-1.02-1.61-2.38-1.61-3.75,0-.35.04-.7.11-1.04.19-.92.63-1.8,1.33-2.54,1.4-1.47,3.45-1.93,5.27-1.37.74.22,1.45.62,2.05,1.2l15.09,14.4s.03.03.05.05c.13.13.26.26.38.4.15.19.3.4.42.61V7.13H8.03ZM57.83,43.05l-4.13,3.54h-.01l-12.43,10.65c-2.05,1.75-5.13,1.51-6.88-.54l-.65-.76c-1.76-2.05-1.52-5.13.53-6.88l8.4-7.18h0s8.17-7,8.17-7c2.05-1.76,5.13-1.52,6.88.53l.65.76c1.76,2.05,1.52,5.13-.53,6.88Z"/>
    <g>
      <g>
        <line class="cls-1" x1="11.01" y1="39.9" x2="8.87" y2="41.94"/>
        <path class="cls-1" d="M8.03,42.99c-1.01,1.64-1.02,3.74,0,5.4v.13c-1.09-1.7-1.08-3.89,0-5.57.06-.09.12-.18.19-.27-.06.1-.13.21-.19.31Z"/>
      </g>
      <g>
        <path class="cls-1" d="M72.51,46.05c-.23.16-.47.32-.73.47l.58-.61.15.14Z"/>
        <path class="cls-1" d="M84.07,48.37c1-1.65,1-3.73,0-5.37-.12-.21-.27-.42-.42-.61.16.18.3.38.42.58,1.07,1.68,1.08,3.85,0,5.54v-.14Z"/>
      </g>
    </g>
  </g>
  <g>
    <path class="cls-3" d="M71.36,46.91l-.58.61c.26-.15.5-.31.73-.47l-.15-.14ZM71.36,46.91l-.58.61c.26-.15.5-.31.73-.47l-.15-.14ZM71.36,46.91l-.58.61c.26-.15.5-.31.73-.47l-.15-.14ZM71.36,46.91l-.58.61c.26-.15.5-.31.73-.47l-.15-.14ZM71.36,46.91l-.58.61c.26-.15.5-.31.73-.47l-.15-.14ZM71.36,46.91l-.58.61c.26-.15.5-.31.73-.47l-.15-.14ZM71.36,46.91l-11.38-10.87c-1.07-1.02-1.61-2.38-1.61-3.75,0-.35.04-.7.11-1.04-1.63-.92-3.81-1.73-6.41-1.67-4.4.08-10.45,2.66-11.32,7.95-.29,1.81.06,3.68.91,5.34l8.17-6.99c2.05-1.76,5.13-1.52,6.88.53l.65.76c1.76,2.05,1.52,5.13-.53,6.88l-4.13,3.54c1.41-.39,2.76-1.1,3.95-2.12.57.59,3.55,3.61,8.26,3.67,2.36.03,4.33-.7,5.87-1.62.26-.15.5-.31.73-.47l-.15-.14ZM71.36,46.91l-11.38-10.87c-1.07-1.02-1.61-2.38-1.61-3.75,0-.35.04-.7.11-1.04-1.63-.92-3.81-1.73-6.41-1.67-4.4.08-10.45,2.66-11.32,7.95-.29,1.81.06,3.68.91,5.34l8.17-6.99c2.05-1.76,5.13-1.52,6.88.53l.65.76c1.76,2.05,1.52,5.13-.53,6.88l-4.13,3.54c1.41-.39,2.76-1.1,3.95-2.12.57.59,3.55,3.61,8.26,3.67,2.36.03,4.33-.7,5.87-1.62.26-.15.5-.31.73-.47l-.15-.14ZM76.23,1H13.17C6.47,1,1,6.48,1,13.18v63.06c0,6.69,5.47,12.17,12.17,12.17h63.06c6.7,0,12.17-5.48,12.17-12.17V13.18c0-6.7-5.47-12.18-12.17-12.18ZM82.44,50.31l-14.39,15.09c-1.02,1.07-2.39,1.61-3.75,1.61-1.29,0-2.58-.48-3.58-1.44-1.17-1.12-1.71-2.66-1.59-4.16-3.47.6-6.55.7-9.2.56-8.34-.43-13.5-3.35-19.54-2.55,1.04,2,.69,4.52-1.02,6.15-1,.96-2.29,1.44-3.57,1.44-1.37,0-2.73-.54-3.75-1.61l-1.28-1.34c-3.66,3.3-6.27,7.85-8.14,12.29-1.63-1.74-2.62-4.07-2.62-6.61v-16.96l-2.36-2.47c-.24-.25-.44-.51-.62-.79v-.13c-1.02-1.66-1.01-3.76,0-5.4.06-.1.13-.21.19-.31.07-.1.14-.2.22-.29.12-.14.25-.27.38-.4.02-.02.03-.03.05-.05l2.14-2.04v-21.22c0-5.32,4.34-9.66,9.66-9.66h50.06c5.32,0,9.66,4.34,9.66,9.66v6.31c-2.45-1.52-5.42-2.14-8.37-1.62-2.27.41-4.31,1.46-5.94,2.97.74.22,1.45.62,2.05,1.2l15.09,14.4s.03.03.05.05c.13.13.26.26.38.4.15.19.3.4.42.61,1,1.64,1,3.72,0,5.37v.14c-.18.28-.39.55-.63.8ZM59.98,36.04c-1.07-1.02-1.61-2.38-1.61-3.75,0-.35.04-.7.11-1.04-1.63-.92-3.81-1.73-6.41-1.67-4.4.08-10.45,2.66-11.32,7.95-.29,1.81.06,3.68.91,5.34l8.17-6.99c2.05-1.76,5.13-1.52,6.88.53l.65.76c1.76,2.05,1.52,5.13-.53,6.88l-4.13,3.54c1.41-.39,2.76-1.1,3.95-2.12.57.59,3.55,3.61,8.26,3.67,2.36.03,4.33-.7,5.87-1.62.26-.15.5-.31.73-.47l-.15-.14-11.38-10.87ZM71.36,46.91l-.58.61c.26-.15.5-.31.73-.47l-.15-.14ZM71.36,46.91l-.58.61c.26-.15.5-.31.73-.47l-.15-.14ZM71.36,46.91l-.58.61c.26-.15.5-.31.73-.47l-.15-.14ZM71.36,46.91l-.58.61c.26-.15.5-.31.73-.47l-.15-.14ZM71.36,46.91l-.58.61c.26-.15.5-.31.73-.47l-.15-.14ZM71.36,46.91l-.58.61c.26-.15.5-.31.73-.47l-.15-.14Z"/>
    <path class="cls-3" d="M7.03,8.13v35.86c.06-.1.13-.21.19-.31.07-.1.14-.2.22-.29.12-.14.25-.27.38-.4.02-.02.03-.03.05-.05l2.14-2.04,12.95-12.36c2.07-1.97,5.35-1.9,7.33.17.95,1.01,1.43,2.29,1.43,3.58,0,1.37-.54,2.73-1.61,3.75l-11.38,10.87,10.81,11.33c.35.36.63.76.85,1.18,1.04,2,.69,4.52-1.02,6.15-1,.96-2.29,1.44-3.57,1.44-1.37,0-2.73-.54-3.75-1.61l-1.28-1.34-10.76-11.28-2.36-2.47c-.24-.25-.44-.51-.62-.79v34.66h76.04v-34.67c-.18.28-.39.55-.63.8l-14.39,15.09c-1.02,1.07-2.39,1.61-3.75,1.61-1.29,0-2.58-.48-3.58-1.44-1.17-1.12-1.71-2.66-1.59-4.16.09-1.15.56-2.28,1.42-3.17l10.23-10.72c.26-.15.5-.31.73-.47l-.15-.14-11.38-10.87c-1.07-1.02-1.61-2.38-1.61-3.75,0-.35.04-.7.11-1.04.19-.92.63-1.8,1.33-2.54,1.4-1.47,3.45-1.93,5.27-1.37.74.22,1.45.62,2.05,1.2l15.09,14.4s.03.03.05.05c.13.13.26.26.38.4.15.19.3.4.42.61V8.13H7.03ZM56.83,44.05l-4.13,3.54h-.01l-12.43,10.65c-2.05,1.75-5.13,1.51-6.88-.54l-.65-.76c-1.76-2.05-1.52-5.13.53-6.88l8.4-7.18h0s8.17-7,8.17-7c2.05-1.76,5.13-1.52,6.88.53l.65.76c1.76,2.05,1.52,5.13-.53,6.88Z"/>
    <g>
      <g>
        <line class="cls-2" x1="10.01" y1="40.9" x2="7.87" y2="42.94"/>
        <path class="cls-3" d="M7.03,43.99c-1.01,1.64-1.02,3.74,0,5.4v.13c-1.09-1.7-1.08-3.89,0-5.57.06-.09.12-.18.19-.27-.06.1-.13.21-.19.31Z"/>
      </g>
      <g>
        <path class="cls-3" d="M71.51,47.05c-.23.16-.47.32-.73.47l.58-.61.15.14Z"/>
        <path class="cls-3" d="M83.07,49.37c1-1.65,1-3.73,0-5.37-.12-.21-.27-.42-.42-.61.16.18.3.38.42.58,1.07,1.68,1.08,3.85,0,5.54v-.14Z"/>
      </g>
    </g>
  </g>
</svg>