<?xml version="1.0" encoding="UTF-8"?>
<svg id="Lag_2" data-name="Lag 2" xmlns="http://www.w3.org/2000/svg" viewBox="0 0 443.81 155.9">
  <defs>
    <style>
      .cls-1 {
        fill: #522236;
      }

      .cls-2 {
        fill: #672942;
      }
    </style>
  </defs>
  <g id="Lag_1-2" data-name="Lag 1">
    <g>
      <path class="cls-1" d="M50.44,26.14c-26.3,2.32-39.12,6.54-45.59,16.62-17.15,26.75,13.32,90.31,58.53,106.99,22.99,8.49,32.08-1.46,99.18-12.94,61.54-10.52,92.31-15.78,126.51-8.92,53.49,10.74,66.08,34.8,100.6,26.17,26.06-6.52,53.03-29.27,53.18-53.18.2-31.92-47.46-55.11-77.62-63.25-50.37-13.59-61.66,12.14-126.49,12.94-74.19.91-99.12-32.31-188.3-24.44Z"/>
      <path class="cls-2" d="M50.44,6.01C38.54,9.96,8.65,19.88,1.57,43.39c-9.28,30.8,24.05,73.51,61.81,86.25,24.84,8.38,34.71-1.91,99.18-12.94,61.54-10.52,92.31-15.78,126.51-8.92,48.79,9.8,61.96,32.43,100.6,26.17,3.15-.51,46.24-7.98,53.18-33.06,7.85-28.35-34.22-69.2-77.62-83.37-46.65-15.24-60.32,11.64-126.49,12.94-90.22,1.76-119.98-47.11-188.3-24.44Z"/>
    </g>
  </g>
</svg>