<?xml version="1.0" encoding="UTF-8"?>
<svg id="Lag_1" xmlns="http://www.w3.org/2000/svg" viewBox="0 0 89.41 89.41">
  <defs>
    <style>
      .cls-1 {
        fill: #dedeed;
      }

      .cls-2 {
        fill: #b2b1cd;
      }

      .cls-3 {
        fill: #9293ba;
      }
    </style>
  </defs>
  <g>
    <path class="cls-3" d="M75.24,2H12.17C5.48,2,0,7.48,0,14.18v63.06c0,6.69,5.48,12.17,12.17,12.17h63.07c6.69,0,12.17-5.48,12.17-12.17V14.18c0-6.7-5.48-12.18-12.17-12.18ZM27.46,72.89c0,4.2-3.44,7.64-7.64,7.64s-7.65-3.44-7.65-7.64v-32.1c0-4.2,3.44-7.64,7.65-7.64,2.1,0,4.01.86,5.39,2.25,1.39,1.38,2.25,3.29,2.25,5.39v32.1ZM25.21,28.18c-1.38,1.39-3.29,2.25-5.39,2.25-4.21,0-7.65-3.44-7.65-7.64,0-2.1.86-4.01,2.25-5.39,1.38-1.39,3.29-2.25,5.4-2.25s4.01.86,5.39,2.25c1.39,1.38,2.25,3.29,2.25,5.39s-.86,4.01-2.25,5.39ZM78.46,73.8c0,3.7-3.03,6.73-6.74,6.73h-1.81c-3.7,0-6.74-3.03-6.74-6.73v-17.38c-.03-4.42-3.27-7.86-6.74-8.14-3.7-.3-7.59,2.99-7.97,7.57-.04.48-.04.98,0,1.49v15.55c0,4.2-3.44,7.64-7.64,7.64s-7.65-3.44-7.65-7.64v-32.1c0-4.2,3.44-7.64,7.65-7.64,2.1,0,4.01.86,5.39,2.25,1.24,1.23,2.05,2.87,2.22,4.7,4.02-2.97,8.25-3.69,8.57-3.74,9.5-1.48,19.31,4.94,21.16,12.08.15.59.23,1.12.27,1.55,0,.02.01.03.01.05.01.02.01.04.01.06,0,.01,0,.02-.01.03.02.1.02.2.02.3v23.37Z"/>
    <path class="cls-1" d="M77.24,0H14.17C7.48,0,2,5.48,2,12.18v63.06c0,6.69,5.48,12.17,12.17,12.17h63.07c6.69,0,12.17-5.48,12.17-12.17V12.18c0-6.7-5.48-12.18-12.17-12.18ZM29.46,70.89c0,4.2-3.44,7.64-7.64,7.64s-7.65-3.44-7.65-7.64v-32.1c0-4.2,3.44-7.64,7.65-7.64,2.1,0,4.01.86,5.39,2.25,1.39,1.38,2.25,3.29,2.25,5.39v32.1ZM27.21,26.18c-1.38,1.39-3.29,2.25-5.39,2.25-4.21,0-7.65-3.44-7.65-7.64,0-2.1.86-4.01,2.25-5.39,1.38-1.39,3.29-2.25,5.4-2.25s4.01.86,5.39,2.25c1.39,1.38,2.25,3.29,2.25,5.39s-.86,4.01-2.25,5.39ZM80.46,71.8c0,3.7-3.03,6.73-6.74,6.73h-1.81c-3.7,0-6.74-3.03-6.74-6.73v-17.38c-.03-4.42-3.27-7.86-6.74-8.14-3.7-.3-7.59,2.99-7.97,7.57-.04.48-.04.98,0,1.49v15.55c0,4.2-3.44,7.64-7.64,7.64s-7.65-3.44-7.65-7.64v-32.1c0-4.2,3.44-7.64,7.65-7.64,2.1,0,4.01.86,5.39,2.25,1.24,1.23,2.05,2.87,2.22,4.7,4.02-2.97,8.25-3.69,8.57-3.74,9.5-1.48,19.31,4.94,21.16,12.08.15.59.23,1.12.27,1.55,0,.02.01.03.01.05.01.02.01.04.01.06,0,.01,0,.02-.01.03.02.1.02.2.02.3v23.37Z"/>
    <path class="cls-2" d="M76.24,1H13.17C6.48,1,1,6.48,1,13.18v63.06c0,6.69,5.48,12.17,12.17,12.17h63.07c6.69,0,12.17-5.48,12.17-12.17V13.18c0-6.7-5.48-12.18-12.17-12.18ZM28.46,71.89c0,4.2-3.44,7.64-7.64,7.64s-7.65-3.44-7.65-7.64v-32.1c0-4.2,3.44-7.64,7.65-7.64,2.1,0,4.01.86,5.39,2.25,1.39,1.38,2.25,3.29,2.25,5.39v32.1ZM26.21,27.18c-1.38,1.39-3.29,2.25-5.39,2.25-4.21,0-7.65-3.44-7.65-7.64,0-2.1.86-4.01,2.25-5.39,1.38-1.39,3.29-2.25,5.4-2.25s4.01.86,5.39,2.25c1.39,1.38,2.25,3.29,2.25,5.39s-.86,4.01-2.25,5.39ZM79.46,72.8c0,3.7-3.03,6.73-6.74,6.73h-1.81c-3.7,0-6.74-3.03-6.74-6.73v-17.38c-.03-4.42-3.27-7.86-6.74-8.14-3.7-.3-7.59,2.99-7.97,7.57-.04.48-.04.98,0,1.49v15.55c0,4.2-3.44,7.64-7.64,7.64s-7.65-3.44-7.65-7.64v-32.1c0-4.2,3.44-7.64,7.65-7.64,2.1,0,4.01.86,5.39,2.25,1.24,1.23,2.05,2.87,2.22,4.7,4.02-2.97,8.25-3.69,8.57-3.74,9.5-1.48,19.31,4.94,21.16,12.08.15.59.23,1.12.27,1.55,0,.02.01.03.01.05.01.02.01.04.01.06,0,.01,0,.02-.01.03.02.1.02.2.02.3v23.37Z"/>
  </g>
  <g>
    <path class="cls-2" d="M49.46,54.85v1.49c-.04-.51-.04-1.01,0-1.49Z"/>
    <path class="cls-2" d="M79.43,48.99c-.04-.43-.12-.96-.27-1.55.15.49.25,1.01.27,1.55Z"/>
    <path class="cls-2" d="M79.45,49.1v.03h-.01s.01-.02.01-.03Z"/>
  </g>
</svg>